<?xml version="1.0" encoding="UTF-8"?>
<svg id="Camada_2" data-name="Camada 2" xmlns="http://www.w3.org/2000/svg" viewBox="0 0 194.14 194.14">
  <defs>
    <style>
      .cls-1 {
        fill: #29285b;
      }

      .cls-2 {
        fill: #175b2b;
      }

      .cls-3 {
        fill: none;
      }
    </style>
  </defs>
  <g id="Camada_1-2" data-name="Camada 1">
    <rect class="cls-3" x="0" width="194.14" height="194.14"/>
    <g>
      <path class="cls-2" d="M161.81,69.8c-12.71,7.24-24.68,15.45-35.95,24.52l-11.91,10.13c-5.91,5.3-11.41,10.72-16.79,16.53l-8.8-7.44-14.68-12.41c-.97-.64-1.65-1.36-2.49-2.07l-4.68-3.94,8.54-7.34,2.96,2.42,12.44,10.44,5.83,4.87c19.32-18.83,41.38-34.98,65.54-48.29v12.57Z"/>
      <path class="cls-1" d="M161.83,74.35l-25.86,16.18-.02,1.4-.05,20.38c0,3.41-1.15,6.47-3.14,9.35-4.69,6.76-13.39,12.43-20.72,17.08l-4.96,3.04-9.93,6.16-13.64-8.43-6.67-4.3c-5.14-3.32-11.27-8.08-14.7-12.75-2.27-2.92-3.47-6.11-3.75-9.69v-51.84c13.98-2.62,26.9-7.19,38.75-13.86,11.8,6.63,24.79,11.27,38.78,13.85l.06,6.03,25.86-15.14v-11.11c-18.23-.83-35.44-5.27-50.77-13.54-4.89-2.64-9.48-5.52-13.77-8.67-.2-.13-.06-.19-.39,0-5.14,3.82-10.66,7.18-16.6,10.17-14.5,7.31-31.08,11.32-47.99,12.04v77.09c.09,0,.16.02.18.16,1.93,13.13,11.93,23.39,23.56,31.91,4.63,3.34,9.34,6.39,14.26,9.42l26.84,16.47,29.02-17.85c4.31-2.65,8.34-5.37,12.39-8.28,11.29-8.43,20.68-17.88,23.08-30.7-.05-.19,0-.32.19-.33v-44.25Z"/>
    </g>
  </g>
</svg>