<?xml version="1.0" encoding="UTF-8"?>
<svg id="Camada_2" data-name="Camada 2" xmlns="http://www.w3.org/2000/svg" viewBox="0 0 375.94 177.48">
  <defs>
    <style>
      .cls-1 {
        fill: #29285b;
      }

      .cls-2 {
        fill: #175b2b;
      }
    </style>
  </defs>
  <g id="Camada_1-2" data-name="Camada 1">
    <g>
      <path class="cls-2" d="M146.04,57.99c-14.34,8.17-27.83,17.43-40.54,27.65l-13.43,11.43c-6.67,5.98-12.87,12.08-18.93,18.64l-9.92-8.39-16.56-13.99c-1.09-.73-1.86-1.53-2.81-2.33l-5.28-4.44,9.63-8.27,3.34,2.73,14.03,11.78,6.57,5.49c21.78-21.23,46.66-39.45,73.91-54.46v14.18Z"/>
      <g>
        <path class="cls-1" d="M204.11,124.06l-1.43-4.69h-7.18l-1.43,4.69h-4.5l6.95-19.77h5.1l6.98,19.77h-4.5ZM201.69,115.88l-1.43-4.58c-.09-.31-.21-.7-.36-1.18-.15-.48-.3-.97-.44-1.47-.15-.5-.27-.93-.36-1.3-.09.37-.21.82-.37,1.37-.16.54-.31,1.06-.45,1.54s-.25.83-.31,1.04l-1.41,4.58h5.13Z"/>
        <path class="cls-1" d="M223.54,118.6c0,1.17-.28,2.18-.85,3.04-.57.86-1.39,1.53-2.47,1.99-1.08.47-2.4.7-3.94.7-.68,0-1.35-.05-2-.13-.65-.09-1.27-.22-1.87-.4-.6-.17-1.17-.39-1.7-.65v-3.88c.93.41,1.9.78,2.91,1.12,1,.33,2,.5,2.99.5.68,0,1.23-.09,1.65-.27.42-.18.72-.42.91-.74.19-.31.28-.67.28-1.08,0-.49-.16-.91-.5-1.26s-.79-.68-1.37-.98c-.58-.31-1.23-.63-1.96-.98-.46-.22-.96-.48-1.5-.79-.54-.31-1.05-.69-1.53-1.14-.48-.45-.88-1-1.19-1.64-.31-.64-.47-1.41-.47-2.31,0-1.18.27-2.18.81-3.02.54-.84,1.31-1.48,2.31-1.92,1-.45,2.18-.67,3.55-.67,1.02,0,2,.12,2.93.36s1.9.58,2.92,1.03l-1.35,3.25c-.91-.37-1.72-.65-2.44-.86-.72-.2-1.45-.3-2.2-.3-.52,0-.97.08-1.33.25-.37.17-.65.4-.83.7-.19.3-.28.65-.28,1.04,0,.47.14.86.41,1.18.27.32.69.63,1.24.92s1.24.64,2.07,1.04c1.01.48,1.87.97,2.58,1.49.71.51,1.26,1.12,1.65,1.82.39.69.58,1.56.58,2.59Z"/>
        <path class="cls-1" d="M239.56,118.6c0,1.17-.28,2.18-.85,3.04-.57.86-1.39,1.53-2.47,1.99-1.08.47-2.4.7-3.94.7-.68,0-1.35-.05-2-.13-.65-.09-1.27-.22-1.87-.4-.6-.17-1.17-.39-1.7-.65v-3.88c.93.41,1.9.78,2.91,1.12,1,.33,2,.5,2.99.5.68,0,1.23-.09,1.65-.27.42-.18.72-.42.91-.74.19-.31.28-.67.28-1.08,0-.49-.16-.91-.5-1.26s-.79-.68-1.37-.98c-.58-.31-1.23-.63-1.96-.98-.46-.22-.96-.48-1.5-.79-.54-.31-1.05-.69-1.53-1.14-.48-.45-.88-1-1.19-1.64-.31-.64-.47-1.41-.47-2.31,0-1.18.27-2.18.81-3.02.54-.84,1.31-1.48,2.31-1.92,1-.45,2.18-.67,3.55-.67,1.02,0,2,.12,2.93.36s1.9.58,2.92,1.03l-1.35,3.25c-.91-.37-1.72-.65-2.44-.86-.72-.2-1.45-.3-2.2-.3-.52,0-.97.08-1.33.25-.37.17-.65.4-.83.7-.19.3-.28.65-.28,1.04,0,.47.14.86.41,1.18.27.32.69.63,1.24.92s1.24.64,2.07,1.04c1.01.48,1.87.97,2.58,1.49.71.51,1.26,1.12,1.65,1.82.39.69.58,1.56.58,2.59Z"/>
        <path class="cls-1" d="M255.3,124.06h-11.34v-19.69h11.34v3.42h-7.17v4.32h6.67v3.42h-6.67v5.08h7.17v3.45Z"/>
        <path class="cls-1" d="M271.86,118.6c0,1.17-.28,2.18-.85,3.04-.57.86-1.39,1.53-2.47,1.99-1.08.47-2.4.7-3.94.7-.68,0-1.35-.05-2-.13-.65-.09-1.27-.22-1.87-.4-.6-.17-1.17-.39-1.7-.65v-3.88c.93.41,1.9.78,2.91,1.12,1,.33,2,.5,2.99.5.68,0,1.23-.09,1.65-.27.42-.18.72-.42.91-.74.19-.31.28-.67.28-1.08,0-.49-.16-.91-.5-1.26s-.79-.68-1.37-.98c-.58-.31-1.23-.63-1.96-.98-.46-.22-.96-.48-1.5-.79-.54-.31-1.05-.69-1.53-1.14-.48-.45-.88-1-1.19-1.64-.31-.64-.47-1.41-.47-2.31,0-1.18.27-2.18.81-3.02.54-.84,1.31-1.48,2.31-1.92,1-.45,2.18-.67,3.55-.67,1.02,0,2,.12,2.93.36s1.9.58,2.92,1.03l-1.35,3.25c-.91-.37-1.72-.65-2.44-.86-.72-.2-1.45-.3-2.2-.3-.52,0-.97.08-1.33.25-.37.17-.65.4-.83.7-.19.3-.28.65-.28,1.04,0,.47.14.86.41,1.18.27.32.69.63,1.24.92s1.24.64,2.07,1.04c1.01.48,1.87.97,2.58,1.49.71.51,1.26,1.12,1.65,1.82.39.69.58,1.56.58,2.59Z"/>
        <path class="cls-1" d="M287.88,118.6c0,1.17-.28,2.18-.85,3.04-.57.86-1.39,1.53-2.47,1.99-1.08.47-2.4.7-3.94.7-.68,0-1.35-.05-2-.13-.65-.09-1.27-.22-1.87-.4-.6-.17-1.17-.39-1.7-.65v-3.88c.93.41,1.9.78,2.91,1.12,1,.33,2,.5,2.99.5.68,0,1.23-.09,1.65-.27.42-.18.72-.42.91-.74.19-.31.28-.67.28-1.08,0-.49-.16-.91-.5-1.26s-.79-.68-1.37-.98c-.58-.31-1.23-.63-1.96-.98-.46-.22-.96-.48-1.5-.79-.54-.31-1.05-.69-1.53-1.14-.48-.45-.88-1-1.19-1.64-.31-.64-.47-1.41-.47-2.31,0-1.18.27-2.18.81-3.02.54-.84,1.31-1.48,2.31-1.92,1-.45,2.18-.67,3.55-.67,1.02,0,2,.12,2.93.36s1.9.58,2.92,1.03l-1.35,3.25c-.91-.37-1.72-.65-2.44-.86-.72-.2-1.45-.3-2.2-.3-.52,0-.97.08-1.33.25-.37.17-.65.4-.83.7-.19.3-.28.65-.28,1.04,0,.47.14.86.41,1.18.27.32.69.63,1.24.92s1.24.64,2.07,1.04c1.01.48,1.87.97,2.58,1.49.71.51,1.26,1.12,1.65,1.82.39.69.58,1.56.58,2.59Z"/>
        <path class="cls-1" d="M310.16,114.19c0,1.52-.19,2.9-.57,4.14-.38,1.24-.95,2.32-1.72,3.21s-1.74,1.59-2.92,2.07c-1.18.48-2.57.72-4.18.72s-3-.24-4.18-.72c-1.18-.48-2.15-1.17-2.91-2.07-.77-.9-1.34-1.97-1.72-3.22s-.56-2.64-.56-4.16c0-2.04.33-3.81,1-5.33.67-1.51,1.7-2.69,3.09-3.52,1.39-.84,3.16-1.25,5.31-1.25s3.89.42,5.27,1.25c1.38.83,2.4,2.01,3.07,3.53.67,1.52,1,3.3,1,5.35ZM295.78,114.19c0,1.37.17,2.56.52,3.55.35.99.89,1.75,1.62,2.29s1.69.8,2.86.8,2.15-.27,2.88-.8c.74-.53,1.27-1.3,1.61-2.29.33-.99.5-2.18.5-3.55,0-2.06-.38-3.69-1.16-4.88-.77-1.18-2.04-1.78-3.81-1.78-1.18,0-2.13.27-2.87.8s-1.28,1.3-1.63,2.29c-.35.99-.52,2.18-.52,3.56Z"/>
        <path class="cls-1" d="M320.8,104.37c1.79,0,3.26.22,4.42.65,1.16.43,2.03,1.08,2.59,1.95.57.87.85,1.97.85,3.3,0,.9-.17,1.68-.51,2.36-.34.67-.79,1.24-1.35,1.71s-1.16.85-1.8,1.14l5.79,8.58h-4.63l-4.7-7.56h-2.22v7.56h-4.18v-19.69h5.74ZM320.51,107.79h-1.27v5.32h1.35c1.38,0,2.37-.23,2.97-.69.6-.46.9-1.14.9-2.04s-.32-1.6-.96-1.99c-.64-.4-1.64-.59-2.98-.59Z"/>
        <path class="cls-1" d="M334.1,124.06v-19.69h4.18v19.69h-4.18Z"/>
        <path class="cls-1" d="M356.12,124.06l-1.43-4.69h-7.18l-1.43,4.69h-4.5l6.95-19.77h5.1l6.98,19.77h-4.5ZM353.69,115.88l-1.43-4.58c-.09-.31-.21-.7-.36-1.18-.15-.48-.3-.97-.44-1.47-.15-.5-.27-.93-.36-1.3-.09.37-.21.82-.37,1.37-.16.54-.31,1.06-.45,1.54-.14.48-.25.83-.31,1.04l-1.41,4.58h5.13Z"/>
        <path class="cls-1" d="M182.47,141.61c1.79,0,3.26.21,4.42.65,1.16.43,2.03,1.08,2.59,1.95.57.87.85,1.97.85,3.3,0,.9-.17,1.68-.51,2.36-.34.67-.79,1.24-1.35,1.71s-1.16.85-1.8,1.15l5.79,8.58h-4.63l-4.7-7.56h-2.22v7.56h-4.18v-19.69h5.74ZM182.18,145.03h-1.27v5.32h1.35c1.38,0,2.37-.23,2.97-.69.6-.46.9-1.14.9-2.04s-.32-1.6-.96-1.99c-.64-.39-1.64-.59-2.98-.59Z"/>
        <path class="cls-1" d="M207.11,161.3h-11.34v-19.69h11.34v3.42h-7.17v4.32h6.67v3.42h-6.67v5.08h7.17v3.45Z"/>
        <path class="cls-1" d="M219.53,150.24h7.81v10.21c-1.03.34-2.11.61-3.22.81-1.11.2-2.37.3-3.78.3-1.96,0-3.62-.39-4.99-1.16-1.36-.77-2.4-1.91-3.11-3.42-.71-1.51-1.06-3.36-1.06-5.56,0-2.06.4-3.85,1.19-5.36.8-1.51,1.96-2.68,3.49-3.5,1.53-.83,3.4-1.24,5.61-1.24,1.04,0,2.07.11,3.08.34,1.01.22,1.93.52,2.76.88l-1.39,3.34c-.6-.3-1.29-.56-2.06-.77-.77-.21-1.58-.31-2.42-.31-1.21,0-2.27.28-3.16.83s-1.58,1.34-2.07,2.34c-.49,1-.73,2.18-.73,3.53,0,1.28.17,2.42.52,3.41.35.99.9,1.77,1.66,2.33s1.74.84,2.95.84c.59,0,1.09-.03,1.5-.09.41-.06.79-.12,1.15-.18v-4.11h-3.73v-3.48Z"/>
        <path class="cls-1" d="M248.88,141.61v12.74c0,1.36-.3,2.58-.9,3.67-.6,1.09-1.5,1.96-2.71,2.59s-2.73.96-4.56.96c-2.6,0-4.59-.66-5.95-1.99-1.36-1.33-2.05-3.09-2.05-5.28v-12.69h4.16v12.05c0,1.63.33,2.77,1,3.42.67.66,1.65.98,2.95.98.91,0,1.66-.16,2.23-.47.57-.31.99-.8,1.26-1.45.27-.65.4-1.49.4-2.51v-12.03h4.16Z"/>
        <path class="cls-1" d="M254.53,161.3v-19.69h4.18v16.24h7.99v3.45h-12.16Z"/>
        <path class="cls-1" d="M283,161.3l-1.43-4.69h-7.18l-1.43,4.69h-4.5l6.95-19.77h5.1l6.98,19.77h-4.5ZM280.57,153.11l-1.43-4.58c-.09-.31-.21-.7-.36-1.18-.15-.48-.3-.97-.44-1.47-.15-.5-.27-.93-.36-1.3-.09.37-.21.82-.37,1.37-.16.54-.31,1.06-.45,1.54-.14.48-.25.83-.31,1.04l-1.41,4.58h5.13Z"/>
        <path class="cls-1" d="M298.4,161.3h-4.18v-16.22h-5.35v-3.48h14.87v3.48h-5.35v16.22Z"/>
        <path class="cls-1" d="M325.48,151.43c0,1.52-.19,2.9-.57,4.14-.38,1.24-.95,2.32-1.72,3.21s-1.74,1.59-2.92,2.07-2.57.72-4.18.72-3-.24-4.18-.72c-1.18-.48-2.15-1.17-2.91-2.07-.77-.9-1.34-1.97-1.72-3.22-.38-1.25-.56-2.64-.56-4.16,0-2.04.33-3.81,1-5.33.67-1.51,1.7-2.69,3.09-3.52,1.39-.84,3.16-1.25,5.31-1.25s3.89.42,5.27,1.25c1.38.83,2.4,2.01,3.07,3.53.67,1.52,1,3.3,1,5.35ZM311.11,151.43c0,1.37.17,2.56.52,3.55.35.99.89,1.76,1.62,2.29s1.69.8,2.86.8,2.15-.27,2.88-.8c.74-.53,1.27-1.3,1.61-2.29.33-.99.5-2.17.5-3.55,0-2.06-.38-3.69-1.16-4.88-.77-1.18-2.04-1.78-3.81-1.78-1.18,0-2.13.27-2.87.8s-1.28,1.3-1.63,2.29c-.35.99-.52,2.18-.52,3.56ZM321.4,135.53v.28c-.26.25-.6.56-1.02.93-.42.37-.87.75-1.36,1.15-.49.4-.96.78-1.43,1.14s-.87.67-1.22.91h-2.73v-.36c.3-.34.64-.75,1.03-1.22s.78-.96,1.16-1.46c.39-.5.71-.96.97-1.37h4.61Z"/>
        <path class="cls-1" d="M336.13,141.61c1.79,0,3.26.21,4.42.65,1.16.43,2.03,1.08,2.59,1.95.57.87.85,1.97.85,3.3,0,.9-.17,1.68-.51,2.36-.34.67-.79,1.24-1.35,1.71s-1.16.85-1.8,1.15l5.79,8.58h-4.63l-4.7-7.56h-2.22v7.56h-4.18v-19.69h5.74ZM335.83,145.03h-1.27v5.32h1.35c1.38,0,2.37-.23,2.97-.69.6-.46.9-1.14.9-2.04s-.32-1.6-.96-1.99c-.64-.39-1.64-.59-2.98-.59Z"/>
        <path class="cls-1" d="M349.43,161.3v-19.69h4.18v19.69h-4.18Z"/>
        <path class="cls-1" d="M371.44,161.3l-1.43-4.69h-7.18l-1.43,4.69h-4.5l6.95-19.77h5.1l6.98,19.77h-4.5ZM369.02,153.11l-1.43-4.58c-.09-.31-.21-.7-.36-1.18-.15-.48-.3-.97-.44-1.47-.15-.5-.27-.93-.36-1.3-.09.37-.21.82-.37,1.37-.16.54-.31,1.06-.45,1.54-.14.48-.25.83-.31,1.04l-1.41,4.58h5.13Z"/>
      </g>
      <g>
        <g>
          <path class="cls-1" d="M191.4,68.5h58.45c4.02,0,6.84-.97,8.47-2.92,2.06-2.49,3.09-7.22,3.09-14.19s-1.47-11.71-4.4-13.71c-1.9-1.3-6.05-1.95-12.45-1.95h-53.08l-.08-16.1h60.25c7.64,0,13.06.49,16.26,1.46,5.47,1.68,9.4,5.28,11.79,10.8,1.62,3.63,2.44,9.77,2.44,18.44,0,10.56-.84,17.87-2.52,21.93-1.68,4.06-4.18,7.07-7.48,9.02-3.85,2.22-9.24,3.33-16.18,3.33h-64.56v-16.1Z"/>
          <path class="cls-1" d="M292.32,84.6V19.63h20.74v49.03h46.35v15.94h-67.08Z"/>
        </g>
        <rect class="cls-1" x="191.52" y="34.29" width="20.24" height="30.06"/>
      </g>
      <path class="cls-1" d="M146.06,63.12l-29.16,18.25-.02,1.58-.06,22.98c0,3.84-1.29,7.3-3.55,10.55-5.29,7.63-15.1,14.02-23.37,19.27l-5.6,3.43-11.2,6.94-15.38-9.51-7.52-4.85c-5.8-3.74-12.71-9.11-16.58-14.37-2.56-3.3-3.91-6.89-4.22-10.93v-58.46c15.77-2.95,30.33-8.11,43.7-15.63,13.3,7.48,27.95,12.71,43.73,15.62l.07,6.8,29.16-17.08v-12.53c-20.55-.94-39.96-5.94-57.26-15.27-5.52-2.98-10.69-6.23-15.53-9.77-.23-.15-.06-.21-.44,0-5.8,4.3-12.03,8.1-18.72,11.47C37.76,19.85,19.07,24.37,0,25.18v86.94c.1,0,.18.02.2.19,2.18,14.81,13.46,26.37,26.57,35.99,5.23,3.77,10.53,7.21,16.08,10.62l30.26,18.58,32.73-20.13c4.86-2.99,9.41-6.06,13.97-9.34,12.73-9.51,23.32-20.17,26.03-34.62-.05-.21,0-.36.22-.38v-49.9Z"/>
    </g>
  </g>
</svg>