<?xml version="1.0" encoding="UTF-8"?>
<svg id="Camada_2" data-name="Camada 2" xmlns="http://www.w3.org/2000/svg" viewBox="0 0 146.06 177.48">
  <defs>
    <style>
      .cls-1 {
        fill: #b2b2b2;
      }
    </style>
  </defs>
  <g id="Camada_1-2" data-name="Camada 1">
    <path class="cls-1" d="M146.04,57.99c-14.34,8.17-27.83,17.43-40.54,27.65l-13.43,11.43c-6.67,5.98-12.87,12.08-18.93,18.64l-9.92-8.39-16.56-13.99c-1.09-.73-1.86-1.53-2.81-2.33l-5.28-4.44,9.63-8.27,3.34,2.73,14.03,11.78,6.57,5.49c21.78-21.23,46.66-39.45,73.91-54.46v14.18Z"/>
    <path class="cls-1" d="M146.06,63.12l-29.16,18.25-.02,1.58-.06,22.98c0,3.84-1.29,7.3-3.55,10.55-5.29,7.63-15.1,14.02-23.37,19.27l-5.6,3.43-11.2,6.94-15.38-9.51-7.52-4.85c-5.8-3.74-12.71-9.11-16.58-14.37-2.56-3.3-3.91-6.89-4.22-10.93v-58.46c15.77-2.95,30.33-8.11,43.7-15.63,13.3,7.48,27.95,12.71,43.73,15.62l.07,6.8,29.16-17.08v-12.53c-20.55-.94-39.96-5.94-57.26-15.27-5.52-2.98-10.69-6.23-15.53-9.77-.23-.15-.06-.21-.44,0-5.8,4.3-12.03,8.1-18.72,11.47C37.76,19.85,19.07,24.37,0,25.18v86.94c.1,0,.18.02.2.19,2.18,14.81,13.46,26.37,26.57,35.99,5.23,3.77,10.53,7.21,16.08,10.62l30.26,18.58,32.73-20.13c4.86-2.99,9.41-6.06,13.97-9.34,12.73-9.51,23.32-20.17,26.03-34.62-.05-.21,0-.36.22-.38v-49.9Z"/>
  </g>
</svg>